<?xml version="1.0" encoding="UTF-8" standalone="no"?>
<!DOCTYPE svg PUBLIC "-//W3C//DTD SVG 1.1//EN"
"http://www.w3.org/Graphics/SVG/1.1/DTD/svg11.dtd">


<!-- Page 1 -->
<svg x="0" y="0" width="275" height="275" version="1.1" xmlns="http://www.w3.org/2000/svg" xmlns:xlink="http://www.w3.org/1999/xlink"
style="display: block;margin-left: auto;margin-right: auto;">
<defs>

<style type="text/css"><![CDATA[

.g5_1{
fill: #F79320;
}
.g4_1{
fill: none;
stroke: #231F20;
stroke-width: 4;
stroke-linecap: butt;
stroke-linejoin: miter;
}
.g2_1{
fill: #FFFFFF;
}
.g6_1{
fill: none;
stroke: #231F20;
stroke-width: 2;
stroke-linecap: butt;
stroke-linejoin: miter;
}
.g3_1{
fill: #231F20;
}
.g1_1{
fill: #7CD0E0;
}


]]></style>

</defs>
<path d="M0,0
L0,275
L275,275
L275,0 Z " 
fill="#FFFFFF" stroke="none" />
<path d="M0,275l275,0L275,0L0,0L0,275Z" class="g1_1" />
<path d="M137.5,208.5c-45.7,0,-82.9,-37.2,-82.9,-82.9c0,-45.7,37.2,-82.9,82.9,-82.9c45.7,0,82.9,37.2,82.9,82.9c0,45.7,-37.2,82.9,-82.9,82.9Z" class="g2_1" />
<path d="M137.5,41.9c-46.2,0,-83.6,37.5,-83.6,83.7c0,46.2,37.4,83.6,83.6,83.6c46.2,0,83.6,-37.4,83.6,-83.6c0,-46.2,-37.4,-83.7,-83.6,-83.7m0,1.6c45.3,0,82.1,36.8,82.1,82.1c0,45.3,-36.8,82.1,-82.1,82.1c-45.3,0,-82.1,-36.8,-82.1,-82.1c0,-45.3,36.8,-82.1,82.1,-82.1Z" class="g3_1" />
<path d="M58.6,97.4C70.2,65,101.1,41.9,137.4,41.9c36.5,0,67.6,23.5,79,56.2" class="g4_1" />
<path d="M216.2,153.2c-11.4,32.6,-42.5,56,-79,56c-35.9,0,-66.6,-22.6,-78.4,-54.5" class="g4_1" />
<path d="M137.7,197.8c-31.1,0,-59.1,-20.6,-68.6,-50.2l-52.8,0l0,-44.1l52.8,0C78.6,73.9,106.6,53.4,137.7,53.4c31.1,0,59.2,20.5,68.7,50.1l52.3,0l0,44.1l-52.3,0c-9.5,29.6,-37.6,50.2,-68.7,50.2Z" class="g5_1" />
<path d="M137.7,51.5c-16.2,0,-31.6,5.2,-44.5,15C81.4,75.4,72.5,87.8,67.7,101.6l-49.5,0l-3.8,0l0,3.9l0,40.2l0,3.8l3.8,0l49.5,0c4.8,13.9,13.7,26.3,25.5,35.2c12.9,9.8,28.3,15,44.5,15c16.3,0,31.7,-5.2,44.6,-15C194,175.8,203,163.4,207.7,149.5l49.1,0l3.8,0l0,-3.8l0,-40.2l0,-3.9l-3.8,0l-49.1,0C203,87.8,194,75.4,182.3,66.5C169.4,56.7,154,51.5,137.7,51.5m0,3.8c31.7,0,58.6,21.2,67.2,50.2l51.9,0l0,40.2l-51.9,0c-8.6,29,-35.5,50.1,-67.2,50.1C106,195.8,79.2,174.7,70.5,145.7l-52.3,0l0,-40.2l52.3,0C79.2,76.5,106,55.3,137.7,55.3Z" class="g3_1" />
<path d="M82.1,236.2l-1.5,0l-1.2,3.7l3.4,0l-0.9,2.9l-3.3,0c-0.7,0,-1.2,-0.3,-1.7,-0.7c-0.4,-0.5,-0.6,-1,-0.6,-1.7c0,0,0,-0.1,0,-0.2c0,0,0,-0.1,0,-0.2c0,0,0,-0.1,0.1,-0.2c0,-0.1,0,-0.1,0,-0.2l1.1,-3.4l-1.6,0l1,-2.8l1.6,0l1.1,-3.5l2.7,0.9l-0.8,2.6l1.5,0Z" class="g2_1" />
<path d="M93.2,242.8l-2.8,0c-0.3,0,-0.6,-0.1,-0.8,-0.2c-0.3,-0.1,-0.5,-0.2,-0.7,-0.4c-0.3,0.2,-0.6,0.4,-1,0.5c-0.3,0.1,-0.7,0.2,-1,0.2c-0.1,0,-0.2,0.1,-0.3,0.1c-0.2,0,-0.3,0,-0.4,0c-0.6,0,-1.2,-0.2,-1.7,-0.4c-0.5,-0.3,-0.9,-0.7,-1.3,-1.3C83.1,241,83,240.8,83,240.5c-0.1,-0.2,-0.1,-0.5,-0.1,-0.7c0,-0.5,0.1,-1,0.3,-1.5c0.2,-0.5,0.4,-0.9,0.7,-1.3c1,-1.3,2.2,-2.3,3.7,-2.8c1.4,-0.5,2.9,-0.8,4.5,-0.8l0.2,0l0.2,0l0,2.8c-0.6,0,-1.3,0.1,-1.9,0.2c-0.6,0,-1.2,0.2,-1.7,0.4c-0.5,0.2,-1,0.4,-1.5,0.7c-0.4,0.3,-0.8,0.7,-1.1,1.2c0,0,-0.1,0,-0.1,0.1c-0.1,0.1,-0.1,0.1,-0.1,0.2C86,239.1,86,239.1,86,239.2c-0.1,0,-0.1,0.1,-0.1,0.2c-0.1,0,-0.1,0.1,-0.1,0.2c0,0.1,0,0.1,0,0.2c0,0.1,0,0.1,0.1,0.2c0,0.1,0.1,0.1,0.3,0.1c0.7,0,1.3,-0.2,1.6,-0.7c0.4,-0.5,0.7,-1.1,0.9,-1.7c0.1,-0.1,0.1,-0.3,0.1,-0.4c0.1,-0.1,0.1,-0.2,0.2,-0.3l2.7,0.9l-0.6,2l3.1,0Z" class="g2_1" />
<path d="M107.5,242.8l-8.7,0l0,-2.9l1.9,0c0.2,0,0.3,0,0.4,-0.1c0.2,0,0.3,0,0.5,-0.1c0.5,-0.2,1.1,-0.5,1.5,-1c0.5,-0.5,0.8,-1.1,0.8,-1.6c0,-0.3,-0.1,-0.5,-0.3,-0.7c-0.2,-0.1,-0.5,-0.2,-0.7,-0.2c-0.4,0,-0.9,0.2,-1.3,0.5c-0.5,0.3,-1,0.7,-1.5,1.2c-0.1,0.1,-0.1,0.2,-0.2,0.2c0,0.1,-0.1,0.2,-0.2,0.2c-0.5,0.7,-1.1,1.4,-1.6,2.3c-0.5,0.9,-0.9,1.8,-1.3,2.8L94.4,251l-2.8,-0.9L94.9,240c0.3,-0.8,0.4,-1.5,0.5,-2.1c0.1,-0.7,0.2,-1.2,0.2,-1.7c0,-0.4,0,-0.7,-0.1,-1c0,-0.3,-0.1,-0.6,-0.1,-0.8c0,-0.1,-0.1,-0.2,-0.1,-0.2c0,-0.1,0,-0.2,0,-0.2c0,-0.1,0,-0.2,-0.1,-0.2c0,-0.1,0,-0.1,0,-0.1L98,233.1c0.1,0.1,0.1,0.2,0.1,0.2c0,0.1,0,0.2,0,0.3c0.1,0.1,0.1,0.2,0.1,0.3c0.1,0.2,0.1,0.5,0.1,0.7c0.1,0.3,0.1,0.6,0.1,0.9c0.7,-0.6,1.4,-1.1,2.1,-1.5c0.8,-0.4,1.6,-0.6,2.4,-0.6c0.2,0,0.5,0,0.7,0c0.2,0,0.4,0.1,0.6,0.2c0.8,0.2,1.4,0.7,1.9,1.3c0.4,0.6,0.6,1.4,0.6,2.2c0,0.5,0,1,-0.2,1.4c-0.2,0.5,-0.4,1,-0.7,1.4l2.6,0Z" class="g2_1" />
<path d="M125.4,242.8l-0.5,0l-0.4,0c-0.4,0,-0.9,-0.1,-1.3,-0.3c-0.4,-0.1,-0.7,-0.3,-1,-0.6c-0.4,0.3,-0.8,0.5,-1.3,0.6c-0.5,0.2,-0.9,0.3,-1.4,0.3c-0.1,0,-0.2,0,-0.3,0c0,-0.1,-0.1,-0.1,-0.2,-0.1c-0.1,0,-0.2,0,-0.3,0c-0.1,-0.1,-0.2,-0.1,-0.3,-0.1c-0.7,-0.2,-1.2,-0.6,-1.6,-1.2c-0.3,-0.6,-0.5,-1.2,-0.5,-1.8c0,-0.1,0,-0.2,0,-0.3c0,-0.1,0.1,-0.2,0.1,-0.3c0,-0.1,0,-0.2,0,-0.3c0,-0.1,0.1,-0.2,0.1,-0.3l1.6,-5.1l3.1,0l-2,6c0,0.1,0,0.1,0,0.2c0,0,0,0.1,0,0.1c0,0.1,0,0.2,0,0.2c0.1,0.1,0.2,0.1,0.3,0.1c0.1,0,0.1,0,0.2,0c0.1,0,0.1,-0.1,0.2,-0.1c0.3,-0.1,0.6,-0.2,0.9,-0.5c0.3,-0.2,0.5,-0.5,0.6,-0.8l0,-0.1l1.7,-5.1l3,0l-1.9,6c0,0.1,0,0.1,-0.1,0.2c0,0,0,0.1,0,0.1c0,0.1,0.1,0.2,0.1,0.2c0.1,0.1,0.1,0.1,0.3,0.1l1.8,0Z" class="g2_1" />
<path d="M132.1,241.5c-0.8,0.9,-1.8,1.3,-3.1,1.3l-3,0l1,-2.9l2,0c0.5,0,0.8,-0.1,1.1,-0.4c0.2,-0.2,0.4,-0.6,0.4,-1.1c0,-0.3,-0.1,-0.6,-0.1,-0.8c-0.1,-0.2,-0.2,-0.5,-0.3,-0.7c-0.3,0.5,-0.6,1,-0.9,1.3c-0.3,0.4,-0.4,0.6,-0.4,0.6l-2.3,-1.7c0.8,-1.2,1.5,-2.1,2,-2.8c0.5,-0.7,0.9,-1.3,1.4,-1.9c0.4,-0.6,0.6,-0.9,0.6,-0.9l2.6,1.3c0,0,-0.1,0.2,-0.3,0.5c-0.3,0.3,-0.5,0.7,-0.9,1.1c0.5,0.5,0.8,1.2,1.1,1.9c0.2,0.6,0.3,1.3,0.3,2.1c0,1.3,-0.4,2.3,-1.2,3.1Z" class="g2_1" />
<path d="M147.7,236.2l-1.6,0l-1.2,3.7l3.5,0l-0.9,2.9l-3.3,0c-0.7,0,-1.2,-0.3,-1.7,-0.7c-0.4,-0.5,-0.6,-1,-0.6,-1.7c0,0,0,-0.1,0,-0.2c0,0,0,-0.1,0,-0.2c0,0,0,-0.1,0,-0.2c0.1,-0.1,0.1,-0.1,0.1,-0.2l1.1,-3.4l-1.6,0l0.9,-2.8l1.6,0l1.2,-3.5l2.7,0.9l-0.8,2.6l1.5,0Z" class="g2_1" />
<path d="M153.3,237.8c-0.4,-0.4,-0.6,-0.9,-0.6,-1.4c-0.3,0.2,-0.6,0.4,-0.8,0.8c-0.2,0.3,-0.4,0.6,-0.4,1l0,0.1c0,0,0,0.1,0,0.1l0,0.1c0,0.3,0.1,0.6,0.3,0.9c0.2,0.3,0.5,0.4,0.9,0.4c0.4,0,0.8,-0.1,1.1,-0.4c0.3,-0.2,0.6,-0.5,0.8,-0.9c-0.5,-0.1,-0.9,-0.3,-1.3,-0.7m5.8,0.8l-1.4,0c-0.2,1.1,-0.8,2.1,-1.8,2.9c-0.9,0.9,-2,1.3,-3.2,1.3l-0.2,0c0,0,-0.1,0,-0.1,-0.1c-0.1,0,-0.1,0,-0.2,0c0,0,-0.1,0,-0.1,0c-1.1,-0.1,-2,-0.6,-2.6,-1.4c-0.7,-0.8,-1,-1.8,-1,-2.8c0,-1.4,0.5,-2.7,1.5,-3.7c1,-1.1,2.2,-1.7,3.7,-1.7c0.8,0,1.6,0.3,2.3,0.7c0.6,0.5,1.1,1.1,1.5,1.8l2.6,0Z" class="g2_1" />
<path d="M164.4,236.2c-0.7,0,-1.3,0.3,-1.8,0.9c-0.6,0.5,-0.9,1.1,-1,1.7c0,0.1,0,0.1,0,0.2c-0.1,0,-0.1,0,-0.1,0.1c0,0.2,0,0.4,0.1,0.6c0.1,0.1,0.3,0.2,0.6,0.2l0.1,0l0.1,0c0.4,-0.1,0.9,-0.3,1.3,-0.7c0.5,-0.3,0.8,-0.8,0.9,-1.2c0.1,0,0.1,-0.1,0.1,-0.1c0,-0.1,0,-0.1,0,-0.1l0.5,-1.6Zm3.2,2.3c-0.1,0.1,-0.1,0.2,-0.1,0.3c-0.1,0.1,-0.1,0.2,-0.1,0.4c0,0,0,0.1,0.1,0.2c0,0,0,0.1,0.1,0.2c0,0.1,0.1,0.1,0.2,0.2c0.1,0,0.2,0,0.3,0.1c0,0,0.1,0,0.1,0l0.1,0l1.9,0l-0.9,2.9l-1,0c-0.5,0,-1.1,-0.1,-1.6,-0.3c-0.5,-0.2,-0.9,-0.6,-1.3,-1c-0.4,0.4,-0.9,0.6,-1.3,0.9c-0.5,0.2,-1,0.3,-1.5,0.3c-0.1,0.1,-0.2,0.1,-0.2,0.1l-0.2,0c-1.2,0,-2.1,-0.4,-2.7,-1.1c-0.5,-0.7,-0.8,-1.5,-0.8,-2.4c0,-0.2,0,-0.3,0,-0.4c0,-0.1,0,-0.3,0,-0.4c0.1,-0.2,0.1,-0.5,0.2,-0.8c0.1,-0.2,0.2,-0.5,0.3,-0.7c0.4,-1,1.1,-1.8,2,-2.5c0.9,-0.8,2,-1.1,3.2,-1.1l1.8,0l2.8,-8.6l3,0Z" class="g2_1" />
<path d="M180.3,242.8l-2.9,0c-0.3,0,-0.6,-0.1,-0.8,-0.2c-0.3,-0.1,-0.5,-0.2,-0.7,-0.4c-0.3,0.2,-0.6,0.4,-1,0.5c-0.3,0.1,-0.6,0.2,-1,0.2c-0.1,0,-0.2,0.1,-0.3,0.1c-0.1,0,-0.2,0,-0.4,0c-0.6,0,-1.1,-0.2,-1.7,-0.4c-0.5,-0.3,-0.9,-0.7,-1.2,-1.3c-0.2,-0.3,-0.2,-0.5,-0.3,-0.8c-0.1,-0.2,-0.1,-0.5,-0.1,-0.7c0,-0.5,0.1,-1,0.3,-1.5c0.2,-0.5,0.5,-0.9,0.8,-1.3c0.9,-1.3,2.1,-2.3,3.6,-2.8c1.4,-0.5,2.9,-0.8,4.5,-0.8l0.2,0l0.2,0l0,2.8c-0.6,0,-1.2,0.1,-1.8,0.2c-0.7,0,-1.2,0.2,-1.8,0.4c-0.5,0.2,-1,0.4,-1.4,0.7c-0.5,0.3,-0.9,0.7,-1.2,1.2c0,0,-0.1,0,-0.1,0.1c0,0.1,-0.1,0.1,-0.1,0.2c0,0.1,-0.1,0.1,-0.1,0.2c0,0,-0.1,0.1,-0.1,0.2c0,0,-0.1,0.1,-0.1,0.2c0,0.1,0,0.1,0,0.2c0,0.1,0,0.1,0.1,0.2c0,0.1,0.1,0.1,0.3,0.1c0.7,0,1.3,-0.2,1.7,-0.7c0.3,-0.5,0.6,-1.1,0.8,-1.7c0.1,-0.1,0.1,-0.3,0.2,-0.4c0,-0.1,0,-0.2,0.1,-0.3l2.7,0.9l-0.6,2l3.1,0Z" class="g2_1" />
<path d="M191.1,233.9c-0.1,0.2,-0.2,0.4,-0.3,0.6c-0.2,0.5,-0.5,1,-0.7,1.5c-0.3,0.6,-0.6,1.2,-0.9,1.7c-0.1,0.2,-0.1,0.4,-0.2,0.5c-0.1,0.2,-0.2,0.4,-0.3,0.5c0,0.5,0,1.1,-0.1,1.6c0,0.5,0,1.1,-0.1,1.6c-0.2,2.1,-0.9,4.1,-1.9,6c-1,1.8,-2.7,3.1,-5,3.7l-0.7,-2.8c1.5,-0.4,2.6,-1.2,3.3,-2.5c0.7,-1.3,1.2,-2.6,1.4,-4.1c-0.3,0.2,-0.6,0.3,-0.9,0.4c-0.3,0.1,-0.6,0.1,-1,0.1c-0.9,0,-1.7,-0.3,-2.3,-0.9c-0.5,-0.6,-0.8,-1.4,-0.8,-2.2c0,-0.2,0,-0.4,0,-0.6c0.1,-0.2,0.1,-0.4,0.2,-0.6c0.3,-0.9,0.5,-1.7,0.8,-2.6c0.3,-0.8,0.6,-1.6,0.8,-2.5l3.1,0c-0.4,1,-0.7,2,-1,3c-0.3,1,-0.6,2,-1,3c0,0.1,0,0.1,0,0.1c0,0,0,0.1,0,0.1c0,0,0,0.1,0,0.1c0,0.1,0,0.2,0,0.2c0.1,0,0.1,0.1,0.2,0.1c0.3,0,0.5,-0.1,0.8,-0.3c0.2,-0.2,0.5,-0.5,0.8,-0.8c0.2,-0.4,0.5,-0.9,0.8,-1.4c0.3,-0.4,0.6,-1,0.8,-1.5c0.2,-0.4,0.5,-0.9,0.7,-1.3c0.2,-0.5,0.4,-0.9,0.5,-1.2l0,-0.1l3.2,0c-0.1,0.2,-0.1,0.4,-0.2,0.6Z" class="g2_1" />
<path d="M195.2,237.6l-3.1,0l4,-12.1l3,0Zm-1.7,5.2l-3,0l0.9,-2.9l3,0Z" class="g2_1" />
<path d="M23.7,109.4l8.6,0l8.6,12.5l8.4,-12.5l8.6,0l0,32.6l-10.4,0l0,-11.7l-6.6,9.8l-6.7,-9.8l0,11.7l-10.5,0Z" class="g2_1" />
<path d="M23.7,109.4l8.6,0l8.6,12.5l8.4,-12.5l8.6,0l0,32.6l-10.4,0l0,-11.7l-6.6,9.8l-6.7,-9.8l0,11.7l-10.5,0l0,-32.6Z" class="g6_1" />
<path d="M78.7,131.9l-2.2,-5.7l-2.2,5.7ZM72.5,109.4l7.9,0L92.7,142l-10.2,0l-1.1,-2.9l-9.9,0L70.4,142l-10.2,0Z" class="g2_1" />
<path d="M78.7,131.9l-2.2,-5.7l-2.2,5.7l4.4,0ZM72.5,109.4l7.9,0L92.7,142l-10.2,0l-1.1,-2.9l-9.9,0L70.4,142l-10.2,0L72.5,109.4Z" class="g6_1" />
<path d="M105.4,132.7c2.5,0,4.3,-0.5,5.7,-1.7c1.3,-1.1,2,-2.9,2,-5.3c0,-2.4,-0.7,-4.1,-2,-5.3c-1.4,-1.1,-3.2,-1.7,-5.7,-1.7ZM95,142l0,-32.6l9,0c3.1,0,5.8,0.4,8.2,1.1c2.4,0.6,4.4,1.7,6.1,3c1.6,1.4,2.9,3.1,3.8,5.1c0.8,2.1,1.3,4.4,1.3,7.1c0,2.7,-0.5,5,-1.3,7.1c-0.9,2,-2.2,3.7,-3.8,5.1c-1.7,1.3,-3.7,2.4,-6.1,3.1c-2.4,0.7,-5.1,1,-8.2,1Z" class="g2_1" />
<path d="M105.4,132.7c2.5,0,4.3,-0.5,5.7,-1.7c1.3,-1.1,2,-2.9,2,-5.3c0,-2.4,-0.7,-4.1,-2,-5.3c-1.4,-1.1,-3.2,-1.7,-5.7,-1.7l0,14ZM95,142l0,-32.6l9,0c3.1,0,5.8,0.4,8.2,1.1c2.4,0.6,4.4,1.7,6.1,3c1.6,1.4,2.9,3.1,3.8,5.1c0.8,2.1,1.3,4.4,1.3,7.1c0,2.7,-0.5,5,-1.3,7.1c-0.9,2,-2.2,3.7,-3.8,5.1c-1.7,1.3,-3.7,2.4,-6.1,3.1c-2.4,0.7,-5.1,1,-8.2,1l-9,0Z" class="g6_1" />
<path d="M139.4,134.4c2.5,0,3.7,-1,3.7,-2.9c0,-1.9,-1.2,-2.8,-3.7,-2.8l-1.1,0l0,5.7Zm2.5,-15c0,-1.5,-0.8,-2.3,-2.5,-2.3l-1.1,0l0,4.5l1.1,0c1.7,0,2.5,-0.8,2.5,-2.2m-13.7,-10l12.7,0c1.7,0,3.2,0.2,4.5,0.6c1.4,0.4,2.5,0.9,3.5,1.7c0.9,0.7,1.7,1.6,2.2,2.7c0.6,1.1,0.8,2.4,0.8,3.8c0,1.1,-0.1,2,-0.3,2.7c-0.3,0.7,-0.6,1.3,-0.9,1.8c-0.3,0.6,-0.7,1.1,-1.2,1.5c0.7,0.4,1.4,1,2,1.8c0.4,0.6,0.9,1.4,1.3,2.3c0.4,0.9,0.6,2.1,0.6,3.5c0,1.5,-0.3,3,-0.8,4.2c-0.6,1.3,-1.4,2.4,-2.4,3.3c-1,0.9,-2.3,1.6,-3.8,2c-1.4,0.5,-3.1,0.7,-4.9,0.7l-13.3,0Z" class="g2_1" />
<path d="M139.4,134.4c2.5,0,3.7,-1,3.7,-2.9c0,-1.9,-1.2,-2.8,-3.7,-2.8l-1.1,0l0,5.7l1.1,0Zm2.5,-15c0,-1.5,-0.8,-2.3,-2.5,-2.3l-1.1,0l0,4.5l1.1,0c1.7,0,2.5,-0.8,2.5,-2.2Zm-13.7,-10l12.7,0c1.7,0,3.2,0.2,4.5,0.6c1.4,0.4,2.5,0.9,3.5,1.7c0.9,0.7,1.7,1.6,2.2,2.7c0.6,1.1,0.8,2.4,0.8,3.8c0,1.1,-0.1,2,-0.3,2.7c-0.3,0.7,-0.6,1.3,-0.9,1.8c-0.3,0.6,-0.7,1.1,-1.2,1.5c0.7,0.4,1.4,1,2,1.8c0.4,0.6,0.9,1.4,1.3,2.3c0.4,0.9,0.6,2.1,0.6,3.5c0,1.5,-0.3,3,-0.8,4.2c-0.6,1.3,-1.4,2.4,-2.4,3.3c-1,0.9,-2.3,1.6,-3.8,2c-1.4,0.5,-3.1,0.7,-4.9,0.7l-13.3,0l0,-32.6Z" class="g6_1" />
<path d="M166,125.5l0.6,0c1.2,0,2.2,-0.3,3.1,-0.9c0.9,-0.5,1.3,-1.5,1.3,-2.8c0,-1.3,-0.4,-2.2,-1.3,-2.7c-0.9,-0.6,-1.9,-0.9,-3.1,-0.9l-0.6,0ZM155.6,109.4l11.3,0c2,0,4,0.3,5.7,0.9c1.8,0.5,3.4,1.3,4.7,2.4c1.3,1.1,2.3,2.4,3,4c0.8,1.6,1.1,3.4,1.1,5.4c0,1.7,-0.2,3.1,-0.7,4.2c-0.4,1.1,-0.9,2.1,-1.5,2.8c-0.6,0.9,-1.4,1.6,-2.2,2.2l6.1,10.7l-12.2,0L166,133.8l0,8.2l-10.4,0Z" class="g2_1" />
<path d="M166,125.5l0.6,0c1.2,0,2.2,-0.3,3.1,-0.9c0.9,-0.5,1.3,-1.5,1.3,-2.8c0,-1.3,-0.4,-2.2,-1.3,-2.7c-0.9,-0.6,-1.9,-0.9,-3.1,-0.9l-0.6,0l0,7.3ZM155.6,109.4l11.3,0c2,0,4,0.3,5.7,0.9c1.8,0.5,3.4,1.3,4.7,2.4c1.3,1.1,2.3,2.4,3,4c0.8,1.6,1.1,3.4,1.1,5.4c0,1.7,-0.2,3.1,-0.7,4.2c-0.4,1.1,-0.9,2.1,-1.5,2.8c-0.6,0.9,-1.4,1.6,-2.2,2.2l6.1,10.7l-12.2,0L166,133.8l0,8.2l-10.4,0l0,-32.6Z" class="g6_1" />
<path d="M185,109l19,0l0,8l-8,0l0,4l8,0l0,8l-8,0l0,4l9,0l0,9l-20,0Z" class="g2_1" />
<path d="M185,109l19,0l0,8l-8,0l0,4l8,0l0,8l-8,0l0,4l9,0l0,9l-20,0l0,-33Z" class="g6_1" />
<path d="M207,109.4l11,0l3.8,11.4l3.7,-11.4l7.2,0l3.7,11.4l3.8,-11.4l11.1,0L240.5,142l-8.1,0l-3.3,-9.8l-3.3,9.8l-8.1,0Z" class="g2_1" />
<path d="M207,109.4l11,0l3.8,11.4l3.7,-11.4l7.2,0l3.7,11.4l3.8,-11.4l11.1,0L240.5,142l-8.1,0l-3.3,-9.8l-3.3,9.8l-8.1,0L207,109.4Z" class="g6_1" />
<path d="M107.4,163.7c0,-0.9,0.2,-1.7,0.5,-2.4c0.3,-0.7,0.7,-1.4,1.3,-1.9c0.5,-0.5,1.1,-0.9,1.9,-1.2c0.7,-0.2,1.4,-0.4,2.2,-0.4c0.7,0,1.2,0.1,1.7,0.2c0.5,0.1,1,0.3,1.3,0.4c0.4,0.2,0.8,0.4,1.1,0.6l-1.8,3.1c-0.1,-0.1,-0.3,-0.2,-0.5,-0.3c-0.2,-0.1,-0.5,-0.2,-0.7,-0.3c-0.3,-0.1,-0.6,-0.1,-0.9,-0.1c-0.4,0,-0.7,0,-1,0.2c-0.3,0.1,-0.5,0.2,-0.7,0.5c-0.3,0.2,-0.4,0.4,-0.6,0.7c-0.1,0.3,-0.1,0.6,-0.1,0.9c0,0.3,0,0.6,0.1,0.9c0.2,0.3,0.4,0.6,0.6,0.8c0.2,0.2,0.5,0.4,0.8,0.5c0.3,0.1,0.6,0.2,1,0.2c0.3,0,0.6,-0.1,0.9,-0.2c0.3,-0.1,0.5,-0.2,0.7,-0.3c0.2,-0.1,0.4,-0.2,0.6,-0.4l1.8,3.1c-0.3,0.3,-0.7,0.5,-1.1,0.7c-0.4,0.1,-0.8,0.3,-1.3,0.4c-0.5,0.1,-1.1,0.2,-1.7,0.2c-0.9,0,-1.7,-0.1,-2.4,-0.4c-0.8,-0.3,-1.4,-0.7,-2,-1.2c-0.5,-0.5,-0.9,-1.2,-1.2,-1.9c-0.3,-0.7,-0.5,-1.5,-0.5,-2.4Z" class="g3_1" />
<path d="M122.8,163.7c0,0.3,0.1,0.6,0.2,0.9c0.1,0.3,0.3,0.6,0.5,0.8c0.2,0.2,0.4,0.4,0.7,0.5c0.3,0.1,0.6,0.2,1,0.2c0.3,0,0.6,-0.1,0.9,-0.2c0.3,-0.1,0.5,-0.3,0.7,-0.5c0.2,-0.2,0.4,-0.5,0.5,-0.8c0.1,-0.3,0.2,-0.6,0.2,-0.9c0,-0.3,-0.1,-0.6,-0.2,-0.9c-0.1,-0.3,-0.3,-0.5,-0.5,-0.7c-0.2,-0.3,-0.4,-0.4,-0.7,-0.5c-0.3,-0.2,-0.6,-0.2,-0.9,-0.2c-0.4,0,-0.7,0,-1,0.2c-0.3,0.1,-0.5,0.2,-0.7,0.5c-0.2,0.2,-0.4,0.4,-0.5,0.7c-0.1,0.3,-0.2,0.6,-0.2,0.9m-3.5,0c0,-0.8,0.1,-1.5,0.4,-2.3c0.3,-0.7,0.8,-1.3,1.3,-1.8c0.5,-0.6,1.1,-1,1.9,-1.3c0.7,-0.3,1.4,-0.5,2.3,-0.5c0.8,0,1.5,0.2,2.2,0.5c0.8,0.3,1.4,0.7,1.9,1.3c0.5,0.5,1,1.1,1.3,1.8c0.3,0.8,0.4,1.5,0.4,2.3c0,0.8,-0.1,1.6,-0.4,2.3c-0.3,0.7,-0.8,1.3,-1.3,1.9c-0.5,0.5,-1.1,0.9,-1.9,1.2c-0.7,0.3,-1.4,0.5,-2.2,0.5c-0.9,0,-1.6,-0.2,-2.3,-0.5c-0.8,-0.3,-1.4,-0.7,-1.9,-1.2c-0.5,-0.6,-1,-1.2,-1.3,-1.9c-0.3,-0.7,-0.4,-1.5,-0.4,-2.3Z" class="g3_1" />
<path d="M133,158l7,0l0,3l-3,0l0,1l3,0l0,3l-3,0l0,4l-4,0Z" class="g3_1" />
<path d="M142,158l7,0l0,3l-3,0l0,1l3,0l0,3l-3,0l0,4l-4,0Z" class="g3_1" />
<path d="M151,158l7,0l0,3l-3,0l0,1l3,0l0,3l-3,0l0,1l3,0l0,3l-7,0Z" class="g3_1" />
<path d="M160,158l7,0l0,3l-3,0l0,1l3,0l0,3l-3,0l0,1l3,0l0,3l-7,0Z" class="g3_1" />
<path d="M112,82.1l3,0l3.1,4.3l0,-4.3l3.5,0l0,11.2l-3,0L115.5,89l0,4.3l-3.5,0Z" class="g3_1" />
<path d="M124,82l4,0l0,11l-4,0l0,-11Z" class="g3_1" />
<path d="M132,85l-2,0l0,-3l8,0l0,3l-3,0l0,8l-3,0Z" class="g3_1" />
<path d="M143.7,87.6l0.2,0c0.4,0,0.8,-0.1,1.1,-0.2c0.3,-0.2,0.4,-0.6,0.4,-1c0,-0.4,-0.1,-0.8,-0.4,-1c-0.3,-0.1,-0.7,-0.2,-1.1,-0.2l-0.2,0Zm-3.6,-5.5l3.9,0c0.7,0,1.4,0.1,2,0.3c0.6,0.2,1.1,0.5,1.6,0.9c0.4,0.3,0.8,0.8,1,1.3c0.3,0.6,0.4,1.2,0.4,1.9c0,0.6,-0.1,1,-0.2,1.4c-0.2,0.4,-0.4,0.7,-0.5,1c-0.3,0.3,-0.5,0.5,-0.8,0.7l2.1,3.7l-4.2,0l-1.7,-2.8l0,2.8l-3.6,0Z" class="g3_1" />
<path d="M154.7,87.7c0,0.4,0.1,0.7,0.2,1c0.1,0.2,0.3,0.5,0.5,0.7c0.2,0.2,0.5,0.4,0.8,0.5c0.3,0.1,0.6,0.2,0.9,0.2c0.3,0,0.6,-0.1,0.9,-0.2c0.3,-0.1,0.5,-0.3,0.8,-0.5c0.2,-0.2,0.3,-0.5,0.5,-0.7c0.1,-0.3,0.1,-0.6,0.1,-1c0,-0.3,0,-0.6,-0.1,-0.9c-0.2,-0.3,-0.3,-0.5,-0.5,-0.7c-0.3,-0.2,-0.5,-0.4,-0.8,-0.5c-0.3,-0.1,-0.6,-0.2,-0.9,-0.2c-0.3,0,-0.6,0.1,-0.9,0.2c-0.3,0.1,-0.6,0.3,-0.8,0.5c-0.2,0.2,-0.4,0.4,-0.5,0.7c-0.1,0.3,-0.2,0.6,-0.2,0.9m-3.5,0c0,-0.8,0.2,-1.5,0.5,-2.2c0.3,-0.8,0.7,-1.4,1.2,-1.9c0.6,-0.5,1.2,-1,1.9,-1.3c0.7,-0.3,1.5,-0.4,2.3,-0.4c0.8,0,1.6,0.1,2.3,0.4c0.7,0.3,1.3,0.8,1.9,1.3c0.5,0.5,0.9,1.1,1.2,1.9c0.3,0.7,0.5,1.4,0.5,2.2c0,0.8,-0.2,1.6,-0.5,2.3c-0.3,0.7,-0.7,1.4,-1.2,1.9c-0.6,0.5,-1.2,1,-1.9,1.3c-0.7,0.3,-1.5,0.4,-2.3,0.4c-0.8,0,-1.6,-0.1,-2.3,-0.4c-0.7,-0.3,-1.3,-0.8,-1.9,-1.3C152.4,91.4,152,90.7,151.7,90c-0.3,-0.7,-0.5,-1.5,-0.5,-2.3Z" class="g3_1" />
<path d="M139.7,182.1c0,1.2,-1,2.1,-2.2,2.1c-1.2,0,-2.2,-0.9,-2.2,-2.1c0,-1.2,1,-2.2,2.2,-2.2c1.2,0,2.2,1,2.2,2.2Z" class="g3_1" />
<path d="M139.7,71.5c0,1.2,-1,2.2,-2.2,2.2c-1.2,0,-2.2,-1,-2.2,-2.2c0,-1.1,1,-2.1,2.2,-2.1c1.2,0,2.2,1,2.2,2.1Z" class="g3_1" />

<title>madbrew_blueskylogo Page1</title>
</svg>
